<svg width="352" height="250" fill="none" xmlns="http://www.w3.org/2000/svg"><path d="M305.201 40.415c-15.6 11.399-33.716 19.17-52.586 22.28a125.268 125.268 0 01-19.626 1.554c-16.606 0-33.212-3.368-48.309-10.104l-6.541-2.85-6.542 2.85c-15.348 6.736-31.703 10.104-48.309 10.104-8.051 0-16.103-.777-24.154-2.59-19.123-3.887-36.987-12.436-52.335-24.612L0 0l20.129 59.586c16.103 47.668 61.14 95.855 103.41 115.544 15.097 20.984 22.645 58.549 44.284 70.466l7.8 4.404 7.799-4.404c21.387-11.917 29.942-48.964 44.787-69.69 42.018-18.652 86.05-65.802 102.907-112.435L352 5.96l-46.799 34.456zm-87.56 74.611c-10.316 2.072-19.374 2.072-26.67 1.554-.755 13.213-2.013 27.203-4.026 41.71-2.767 20.208-6.29 38.601-10.064 55.181-4.026-16.58-7.548-35.232-10.064-55.181a541.974 541.974 0 01-4.026-41.71c-7.297.518-16.355.518-26.671-1.554-23.4-4.664-39.754-17.099-48.057-24.352 11.826 2.072 25.161 3.886 39.754 4.663 18.871 1.036 35.729 0 50.322-1.555 13.587 1.555 29.438 2.332 47.302 1.555 14.845-.777 28.18-2.332 39.754-4.663-7.8 7.512-24.154 19.948-47.554 24.352z" fill="#fff"/></svg>