<svg width="48" height="48" fill="none" xmlns="http://www.w3.org/2000/svg"><path d="M35.933.019H12.03C5.405.019 0 5.424 0 12.047V35.99c0 6.585 5.405 11.99 12.028 11.99h23.943C42.596 47.98 48 42.575 48 35.953V12.047C47.962 5.424 42.557.02 35.933.02zM15.987 38.845H9.136V19.05h6.851v19.794zm-3.464-22.84a3.493 3.493 0 01-3.502-3.501 3.493 3.493 0 013.502-3.502 3.493 3.493 0 013.502 3.502c-.038 1.941-1.598 3.502-3.502 3.502zm26.341 22.84h-5.748v-9.592c0-2.323-.304-5.291-3.463-5.291-3.236 0-3.769 2.512-3.769 5.138v9.745h-5.71V19.05h5.33v2.665h.152c.837-1.523 2.779-2.703 5.824-2.703 6.28 0 7.384 3.616 7.384 8.983v10.849z" fill="#FFA62B"/></svg>