<svg width="48" height="48" fill="none" xmlns="http://www.w3.org/2000/svg"><path d="M28.219 24a4.219 4.219 0 11-8.438 0 4.219 4.219 0 018.438 0z" fill="#FFA62B"/><path d="M31.125 11.25h-14.25a5.631 5.631 0 00-5.625 5.625v14.25a5.631 5.631 0 005.625 5.625h14.25a5.631 5.631 0 005.625-5.625v-14.25a5.631 5.631 0 00-5.625-5.625zM24 31.031A7.04 7.04 0 0116.969 24 7.04 7.04 0 0124 16.969 7.04 7.04 0 0131.031 24 7.04 7.04 0 0124 31.031zm8.063-13.687a1.406 1.406 0 110-2.813 1.406 1.406 0 010 2.813z" fill="#FFA62B"/><path d="M35.344 0H12.656C5.678 0 0 5.678 0 12.656v22.688C0 42.322 5.678 48 12.656 48h22.688C42.322 48 48 42.322 48 35.344V12.656C48 5.678 42.322 0 35.344 0zm4.218 31.125c0 4.652-3.785 8.438-8.437 8.438h-14.25c-4.652 0-8.438-3.786-8.438-8.438v-14.25c0-4.652 3.786-8.438 8.438-8.438h14.25c4.652 0 8.438 3.786 8.438 8.438v14.25z" fill="#FFA62B"/></svg>