<svg width="24" height="24" fill="none" xmlns="http://www.w3.org/2000/svg"><g clip-path="url(#clip0)"><path d="M19.105 4.11C17.65 1.596 15.062.06 12.185.002a8.98 8.98 0 00-.37 0C8.94.06 6.351 1.596 4.895 4.11a8.355 8.355 0 00-.11 8.255l5.952 10.894.008.014c.262.455.731.727 1.255.727.524 0 .993-.272 1.255-.727l.008-.014 5.951-10.894a8.355 8.355 0 00-.109-8.255zM12 10.875A3.379 3.379 0 018.625 7.5 3.379 3.379 0 0112 4.125 3.379 3.379 0 0115.375 7.5 3.379 3.379 0 0112 10.875z" fill="#FFA62B"/></g><defs><clipPath id="clip0"><path fill="#fff" d="M0 0h24v24H0z"/></clipPath></defs></svg>