<svg width="48" height="48" fill="none" xmlns="http://www.w3.org/2000/svg"><path d="M35.933.019H12.03C5.405.019 0 5.424 0 12.047V35.99c0 6.585 5.405 11.99 12.028 11.99h23.943C42.596 47.98 48 42.575 48 35.953V12.047C47.962 5.424 42.557.02 35.933.02zm-.038 17.966v.8c0 7.993-6.166 17.205-17.472 17.205-3.463 0-6.699-.99-9.402-2.703.495.038.952.077 1.447.077 2.893 0 5.52-.952 7.613-2.589a6.133 6.133 0 01-5.748-4.187c.38.076.761.114 1.142.114.571 0 1.142-.076 1.637-.228-2.74-.571-4.834-3.007-4.834-5.938v-.077c.76.457 1.75.724 2.74.762-1.637-1.066-2.74-2.931-2.74-5.025 0-1.104.304-2.132.837-3.045a17.586 17.586 0 0012.638 6.319 5.604 5.604 0 01-.153-1.37c0-3.35 2.741-6.053 6.129-6.053 1.75 0 3.35.723 4.492 1.903a11.427 11.427 0 003.882-1.484c-.457 1.408-1.446 2.588-2.703 3.35 1.257-.153 2.437-.457 3.54-.952a12.498 12.498 0 01-3.045 3.121z" fill="#FFA62B"/></svg>