<svg width="48" height="48" fill="none" xmlns="http://www.w3.org/2000/svg"><path d="M20.914 19.276v8.762l8.076-4.343-8.076-4.419z" fill="#FFA62B"/><path d="M35.962 0H12C5.41 0 0 5.41 0 12.038V36c0 6.59 5.41 12 12 12h23.962C42.59 48 48 42.59 48 35.962V12.038C48 5.41 42.59 0 35.962 0zm2.895 25.181a65.28 65.28 0 01-.228 5.067s-.267 2.133-1.143 3.085c-1.143 1.258-2.4 1.258-2.972 1.334-4.19.304-10.476.343-10.476.343s-7.81-.115-10.21-.343c-.647-.115-2.17-.077-3.314-1.334-.914-.952-1.143-3.085-1.143-3.085s-.228-2.553-.228-5.067v-2.362c0-2.514.228-5.067.228-5.067s.267-2.133 1.143-3.085c1.143-1.258 2.4-1.296 2.972-1.372C17.714 12.991 24 12.952 24 12.952s6.286.039 10.476.343c.572.076 1.867.114 3.01 1.334.914.952 1.143 3.123 1.143 3.123s.228 2.553.228 5.067v2.362z" fill="#FFA62B"/></svg>