<svg width="100" height="100" fill="none" xmlns="http://www.w3.org/2000/svg"><circle cx="50" cy="50" r="50" fill="#F6921E"/><path fill-rule="evenodd" clip-rule="evenodd" d="M67.196 52.305c3.947-.878 6.797-3.509 7.455-8.553 1.097-7.017-4.385-10.744-12.06-13.157l2.412-9.429-5.702-1.535-2.192 9.21a34.974 34.974 0 00-2.303-.548 35.099 35.099 0 01-2.302-.548l2.412-9.21L49.215 17l-2.413 9.43c-.757-.127-1.514-.326-2.23-.514a28.122 28.122 0 00-1.497-.364l-7.895-1.974-1.535 6.14 4.167 1.097c2.193.438 2.631 1.973 2.631 3.29l-2.631 10.744-3.728 15.13c-.22.658-1.096 1.755-2.631 1.316L27.286 60.2l-2.85 6.578 7.455 1.974c.664.19 1.286.338 1.885.481.788.188 1.535.366 2.281.615l-2.412 9.649 5.702 1.535 2.412-9.43c1.535.22 3.07.658 4.605 1.097l-2.412 9.429 5.701 1.754 2.412-9.648c9.868 1.754 17.323 1.096 20.394-7.894 2.63-7.237 0-11.403-5.263-14.034zm-20.394-.439l-3.07 12.719c.425.094.944.224 1.534.372 4.89 1.225 14.663 3.673 16.228-2.784 1.528-6.492-7.75-8.661-12.78-9.837a52.254 52.254 0 01-1.912-.47zm1.537-5.701l2.85-11.622c.36.096.803.2 1.304.316 4.095.959 12.125 2.838 10.758 8.894-1.434 6.146-10.333 3.679-14.18 2.613-.27-.075-.515-.144-.732-.201z" fill="#FDFDFD"/></svg>