<svg width="90" height="81" fill="none" xmlns="http://www.w3.org/2000/svg"><path fill-rule="evenodd" clip-rule="evenodd" d="M63.78 43.474C62.2 50.97 57.143 58.728 51.4 63.849c-8.054 7.18-17.96 10.666-27.863 10.603-.778-.006-.866-.88-.078-1.039 8.991-1.833 18.158-6.287 25.718-13.028 5.1-4.547 9.768-10.603 12.974-17.39.484-1.026 1.886-.766 1.628.479z" fill="url(#paint0_linear)"/><path fill-rule="evenodd" clip-rule="evenodd" d="M63.74 39.578c-1.256-.229-4.205 3.112-5.53 4.61-.404.458-.823.126-.668-.52.98-4.196 5.773-7.51 6.83-7.338 1.06.175 4.282 5.067 3.652 9.337-.097.655-.609.809-.815.237-.68-1.88-2.206-6.097-3.469-6.326z" fill="url(#paint1_linear)"/><path fill-rule="evenodd" clip-rule="evenodd" d="M79.914 20.418l2.441-2.177a.631.631 0 00.073-.882l-6.04-6.775c-.756-.848-1.394-1.653-1.735-2.73-.268-.849-.077-1.738.52-2.27 1.562-1.392 3.076.335 4.264 1.69l.001.002c.099.113.196.224.291.33l6.092 6.833c.215.192.55.192.788.01l2.458-2.192c.242-.216.288-.573.12-.818l-7.062-7.92C81.04 2.302 79.531.61 77.992.175c-1.658-.471-3.083.088-4.183 1.069-1.693 1.509-1.923 3.187-1.076 5.52l-.044.04-1.716-1.925a.628.628 0 00-.751.04L67.95 6.943c-.248.221-.292.582-.107.831l11.224 12.581a.624.624 0 00.847.062zm-20.11-6.688c3.637-3.243 8.391-1.875 11.932 2.097 3.421 3.838 3.96 8.821.53 11.88-3.572 3.185-8.302 1.795-11.772-2.098-3.492-3.916-4.238-8.716-.69-11.879zm2.311 2.55c-1.807 1.61.274 4.174 1.642 5.708l.051.057c1.39 1.56 4.245 4.764 6.146 3.07 1.9-1.694-.37-4.422-1.81-6.036-.947-1.062-2.123-2.29-3.34-3.011-1.058-.63-1.91-.483-2.689.212zM44.501 28.605l1.605 1.8c.24.27.61.267.868.037l4.21-3.753 1.347 11.249c.104.706.546 1.21.807 1.502l1.627 1.824c.233.262.797.304.941-.097 1.443-3.898 4.862-6.693 8.5-7.603.445-.112.461-.677.227-.939l-1.712-1.92c-.255-.237-.575-.422-1.052-.319-2.113.461-3.957 1.69-5.475 3.112l-1.139-9.684c-.09-.879-.175-1.41-.402-1.672l-1.374-1.541c-.24-.269-.612-.27-.87-.04l-8.058 7.184a.596.596 0 00-.05.86zm-20.226 41.42l2.451-2.186a.62.62 0 00.067-.876l-5.945-6.668-.143-.16c-1.284-1.436-2.955-3.304-1.257-4.818 1.563-1.394 3.022.296 4.21 1.671.134.156.265.308.393.451L30 64.104a.62.62 0 00.847.062l2.448-2.183a.62.62 0 00.067-.876l-5.945-6.668-.075-.084-.076-.085c-.63-.703-1.481-1.65-1.771-2.444-.313-.859-.046-1.808.547-2.337.71-.633 1.47-.884 2.406-.202.456.321 1.28 1.271 1.83 1.906l.341.39 5.945 6.668a.624.624 0 00.847.062l2.448-2.183a.62.62 0 00.067-.876l-7.076-7.943a40.513 40.513 0 01-.52-.597c-1.04-1.207-2.14-2.483-3.614-2.797-1.534-.34-3.036.238-4.064 1.154-1.444 1.288-2.13 3.231-1.307 5.35-2.107-.975-3.726-.862-5.26.506-1.51 1.346-1.97 3.087-1.149 5.208l-.045.04-1.466-1.645a.619.619 0 00-.82-.024l-2.286 2.038a.617.617 0 00-.07.873l11.217 12.58a.62.62 0 00.81.027zM44.337 41.35l.12.134c.8.895 1.48 1.656 1.74 2.875.224 1.037-.018 2.014-.704 2.626-.942.839-2.133.614-3.076-.445-1.863-2.09-.329-4.138 1.446-5.72l.474.53zm7.799 3.771a.685.685 0 01-.527.575c-1.205.042-1.695-.083-2.443-.274a31.69 31.69 0 00-.42-.106c-.122 2.571-.71 3.833-2.452 5.385-2.065 1.842-4.803 1.999-7.074-.55-1.774-1.989-1.906-4.303-.959-6.335.677-1.487 2.03-2.965 3.2-4.245.225-.247.444-.486.65-.717l-.282-.317-.162-.183c-.477-.543-1.009-1.15-1.72-1.325-.7-.188-1.439.137-1.946.588-.934.834-1.338 2.054-.656 3.228.156.257.187.62-.028.83l-2.603 1.862c-.24.134-.608.171-.823-.188-2.025-3.368-.193-6.56 2.137-8.638 1.193-1.064 3.034-2.136 4.781-2.072 2.01.046 3.196 1.392 4.494 2.865.113.13.228.26.344.39l3.406 3.82c.914 1.024 1.75 1.197 2.63 1.38.106.022.213.044.32.068.352.082.623.317.571.66a137.88 137.88 0 00-.428 3.303l-.01-.004zm-39.82 25.01l-.115-.128-.473-.531c-1.772 1.58-3.306 3.628-1.444 5.718.944 1.058 2.132 1.286 3.073.447.69-.615.93-1.589.703-2.626-.26-1.22-.942-1.982-1.744-2.88zm7.157 4.218a.686.686 0 00.527-.575h.013c.103-.87.3-2.44.428-3.302.053-.344-.218-.579-.574-.658-.107-.024-.214-.046-.32-.068-.88-.182-1.716-.355-2.629-1.38l-3.406-3.82c-.117-.13-.232-.261-.346-.391-1.298-1.473-2.484-2.818-4.493-2.864-1.746-.064-3.588 1.009-4.78 2.072-2.33 2.078-4.159 5.268-2.138 8.639.22.356.584.321.824.188l2.606-1.866c.211-.207.18-.569.024-.826-.68-1.175-.274-2.398.66-3.231.503-.449 1.242-.773 1.944-.589.708.179 1.24.784 1.717 1.327l.163.184.283.318c-.206.23-.425.47-.65.717-1.172 1.28-2.523 2.758-3.2 4.244-.945 2.03-.816 4.347.958 6.336 2.272 2.548 5.012 2.388 7.074.55 1.745-1.556 2.33-2.814 2.452-5.385.162.039.31.076.447.111.735.186 1.224.31 2.416.269z" fill="url(#paint2_linear)"/><defs><linearGradient id="paint0_linear" x1="20.426" y1="48.732" x2="57.559" y2="63.201" gradientUnits="userSpaceOnUse"><stop stop-color="#FFB03A"/><stop offset="1" stop-color="#F90"/></linearGradient><linearGradient id="paint1_linear" x1="56.866" y1="38.296" x2="66.881" y2="41.562" gradientUnits="userSpaceOnUse"><stop stop-color="#FFB03A"/><stop offset="1" stop-color="#F90"/></linearGradient><linearGradient id="paint2_linear" x1="-.303" y1="65.149" x2="80.128" y2="29.287" gradientUnits="userSpaceOnUse"><stop stop-color="#252525"/><stop offset="1" stop-color="#121212"/></linearGradient></defs></svg>