<svg width="45" height="88" fill="none" xmlns="http://www.w3.org/2000/svg"><path d="M22.575 87.982c11.916 0 21.575-5.592 21.575-12.491C44.15 68.593 34.49 63 22.575 63S1 68.593 1 75.491c0 6.899 9.66 12.491 21.575 12.491z" fill="url(#paint0_linear)"/><path d="M44.15 68.536H1v6.245c0 6.956 9.652 12.491 21.575 12.491S44.15 81.595 44.15 74.781v-6.245z" fill="url(#paint1_linear)"/><path d="M29.247 86.705c.142 0 .425-.142.567-.142V70.666h-.567v16.039zm2.696-.568c.142 0 .426-.142.568-.142V70.808h-.568v15.329zm2.697-.851c.142-.142.426-.142.568-.284V70.666h-.568v14.62zm-8.09 1.845h.567V70.808h-.567v16.323zm13.484-4.968c.142-.142.426-.284.568-.568V70.666h-.568v11.497zm2.696-2.981c.285-.284.427-.71.569-1.135v-7.523h-.568v8.658zm-5.393 4.826c.142-.142.426-.284.568-.284V70.808h-.568v13.2zM23.71 87.273h.569V70.666h-.568v16.607zm-2.696 0h.568V70.666h-.568v16.607zm-5.394-.568c.142 0 .426.142.568.142V70.808h-.568v15.897zm2.697.426h.568V70.666h-.568v16.465zm-5.394-1.136c.142 0 .426.142.568.142V70.666h-.568v15.329zM2.136 78.756c.142.284.426.71.567.994v-8.942h-.567v7.948zm2.697 3.123c.142.142.425.284.567.426V70.666h-.567v11.213zm5.393 3.265c.142.142.426.142.568.284v-14.62h-.568v14.336zm-2.696-1.42c.141.142.425.284.567.284V70.666H7.53v13.058z" fill="#FDD65B"/><path d="M22.575 80.885c-11.639 0-21.149-5.394-21.433-12.065v.426c0 6.955 9.652 12.491 21.575 12.491s21.575-5.678 21.575-12.49v-.427c-.568 6.671-10.078 12.065-21.717 12.065z" fill="url(#paint2_linear)"/><path d="M22.764 80.982c11.916 0 21.575-5.592 21.575-12.491C44.34 61.593 34.68 56 22.764 56S1.19 61.593 1.19 68.491c0 6.899 9.66 12.491 21.575 12.491z" fill="url(#paint3_linear)"/><path d="M44.34 61.536H1.19v6.245c0 6.956 9.651 12.491 21.574 12.491 11.923 0 21.575-5.677 21.575-12.491v-6.245z" fill="url(#paint4_linear)"/><path d="M29.436 79.705c.142 0 .426-.142.567-.142V63.666h-.567v16.039zm2.697-.568c.142 0 .425-.142.567-.142V63.808h-.567v15.329zm2.697-.851c.141-.142.425-.142.567-.284V63.666h-.568v14.62zm-8.091 1.845h.568V63.808h-.568v16.323zm13.484-4.968c.142-.142.426-.284.568-.568V63.666h-.568v11.497zm2.697-2.981c.284-.284.426-.71.568-1.135v-7.523h-.568v8.658zm-5.394 4.826c.142-.142.426-.284.568-.284V63.808h-.568v13.2zM23.9 80.273h.568V63.666H23.9v16.607zm-2.697 0h.568V63.666h-.568v16.607zm-5.393-.568c.141 0 .425.142.567.142V63.808h-.568v15.897zm2.696.426h.568V63.666h-.568v16.465zm-5.394-1.136c.142 0 .426.142.568.142V63.666h-.568v15.329zM2.325 71.756c.142.284.426.71.568.994v-8.942h-.568v7.948zm2.697 3.123c.142.142.426.284.568.426V63.666h-.568v11.213zm5.393 3.265c.142.142.426.142.568.284v-14.62h-.568v14.336zm-2.696-1.42c.142.142.425.284.567.284V63.666H7.72v13.058z" fill="#FDD65B"/><path d="M22.764 73.885c-11.639 0-21.149-5.394-21.433-12.065v.426c0 6.955 9.652 12.491 21.575 12.491 11.924 0 21.575-5.678 21.575-12.49v-.427c-.567 6.671-10.077 12.065-21.717 12.065z" fill="url(#paint5_linear)"/><path d="M22.764 74.982c11.916 0 21.575-5.592 21.575-12.491C44.34 55.593 34.68 50 22.764 50S1.19 55.593 1.19 62.491c0 6.899 9.66 12.491 21.575 12.491z" fill="url(#paint6_linear)"/><path d="M44.34 55.536H1.19v6.245c0 6.956 9.651 12.491 21.574 12.491 11.923 0 21.575-5.677 21.575-12.491v-6.245z" fill="url(#paint7_linear)"/><path d="M29.436 73.705c.142 0 .426-.142.567-.142V57.666h-.567v16.039zm2.697-.568c.142 0 .425-.142.567-.142V57.808h-.567v15.329zm2.697-.851c.141-.142.425-.142.567-.284V57.666h-.568v14.62zm-8.091 1.845h.568V57.808h-.568v16.323zm13.484-4.968c.142-.142.426-.284.568-.568V57.666h-.568v11.497zm2.697-2.981c.284-.284.426-.71.568-1.135v-7.523h-.568v8.658zm-5.394 4.826c.142-.142.426-.284.568-.284V57.808h-.568v13.2zM23.9 74.273h.568V57.666H23.9v16.607zm-2.697 0h.568V57.666h-.568v16.607zm-5.393-.568c.141 0 .425.142.567.142V57.808h-.568v15.897zm2.696.426h.568V57.666h-.568v16.465zm-5.394-1.136c.142 0 .426.142.568.142V57.666h-.568v15.329zM2.325 65.756c.142.284.426.71.568.994v-8.942h-.568v7.948zm2.697 3.123c.142.142.426.284.568.426V57.666h-.568v11.213zm5.393 3.265c.142.142.426.142.568.284v-14.62h-.568v14.336zm-2.696-1.42c.142.142.425.284.567.284V57.666H7.72v13.058z" fill="#FDD65B"/><path d="M22.764 67.885c-11.639 0-21.149-5.394-21.433-12.065v.426c0 6.955 9.652 12.491 21.575 12.491 11.924 0 21.575-5.678 21.575-12.49v-.427c-.567 6.671-10.077 12.065-21.717 12.065z" fill="url(#paint8_linear)"/><path d="M22.764 67.982c11.916 0 21.575-5.592 21.575-12.491C44.34 48.593 34.68 43 22.764 43S1.19 48.593 1.19 55.491c0 6.899 9.66 12.491 21.575 12.491z" fill="url(#paint9_linear)"/><path d="M44.34 48.536H1.19v6.245c0 6.956 9.651 12.491 21.574 12.491 11.923 0 21.575-5.677 21.575-12.491v-6.245z" fill="url(#paint10_linear)"/><path d="M29.436 66.705c.142 0 .426-.142.567-.142V50.666h-.567v16.039zm2.697-.568c.142 0 .425-.142.567-.142V50.808h-.567v15.329zm2.697-.851c.141-.142.425-.142.567-.284V50.666h-.568v14.62zm-8.091 1.845h.568V50.808h-.568v16.323zm13.484-4.968c.142-.142.426-.284.568-.568V50.666h-.568v11.497zm2.697-2.981c.284-.284.426-.71.568-1.135v-7.523h-.568v8.658zm-5.394 4.826c.142-.142.426-.284.568-.284V50.808h-.568v13.2zM23.9 67.273h.568V50.666H23.9v16.607zm-2.697 0h.568V50.666h-.568v16.607zm-5.393-.568c.141 0 .425.142.567.142V50.808h-.568v15.897zm2.696.426h.568V50.666h-.568v16.465zm-5.394-1.136c.142 0 .426.142.568.142V50.666h-.568v15.329zM2.325 58.756c.142.284.426.71.568.994v-8.942h-.568v7.948zm2.697 3.123c.142.142.426.284.568.426V50.666h-.568v11.213zm5.393 3.265c.142.142.426.142.568.284v-14.62h-.568v14.336zm-2.696-1.42c.142.142.425.284.567.284V50.666H7.72v13.058z" fill="#FDD65B"/><path d="M22.764 60.885c-11.639 0-21.149-5.394-21.433-12.065v.426c0 6.955 9.652 12.491 21.575 12.491 11.924 0 21.575-5.678 21.575-12.49v-.427c-.567 6.671-10.077 12.065-21.717 12.065z" fill="url(#paint11_linear)"/><path d="M22.764 60.982c11.916 0 21.575-5.592 21.575-12.491C44.34 41.593 34.68 36 22.764 36S1.19 41.593 1.19 48.491c0 6.899 9.66 12.491 21.575 12.491z" fill="url(#paint12_linear)"/><path d="M44.34 41.536H1.19v6.245c0 6.956 9.651 12.491 21.574 12.491 11.923 0 21.575-5.677 21.575-12.491v-6.245z" fill="url(#paint13_linear)"/><path d="M29.436 59.705c.142 0 .426-.142.567-.142V43.666h-.567v16.039zm2.697-.568c.142 0 .425-.142.567-.142V43.808h-.567v15.329zm2.697-.851c.141-.142.425-.142.567-.284V43.666h-.568v14.62zm-8.091 1.845h.568V43.808h-.568v16.323zm13.484-4.968c.142-.142.426-.284.568-.568V43.666h-.568v11.497zm2.697-2.981c.284-.284.426-.71.568-1.135v-7.523h-.568v8.658zm-5.394 4.826c.142-.142.426-.284.568-.284V43.808h-.568v13.2zM23.9 60.273h.568V43.666H23.9v16.607zm-2.697 0h.568V43.666h-.568v16.607zm-5.393-.568c.141 0 .425.142.567.142V43.808h-.568v15.897zm2.696.426h.568V43.666h-.568v16.465zm-5.394-1.136c.142 0 .426.142.568.142V43.666h-.568v15.329zM2.325 51.756c.142.284.426.71.568.994v-8.942h-.568v7.948zm2.697 3.123c.142.142.426.284.568.426V43.666h-.568v11.213zm5.393 3.265c.142.142.426.142.568.284v-14.62h-.568v14.336zm-2.696-1.42c.142.142.425.284.567.284V43.666H7.72v13.058z" fill="#FDD65B"/><path d="M22.764 53.885c-11.639 0-21.149-5.394-21.433-12.065v.426c0 6.955 9.652 12.491 21.575 12.491 11.924 0 21.575-5.678 21.575-12.49v-.427c-.567 6.671-10.077 12.065-21.717 12.065z" fill="url(#paint14_linear)"/><path d="M22.764 53.982c11.916 0 21.575-5.592 21.575-12.491C44.34 34.593 34.68 29 22.764 29S1.19 34.593 1.19 41.491c0 6.899 9.66 12.491 21.575 12.491z" fill="url(#paint15_linear)"/><path d="M44.34 34.536H1.19v6.245c0 6.956 9.651 12.491 21.574 12.491 11.923 0 21.575-5.677 21.575-12.491v-6.245z" fill="url(#paint16_linear)"/><path d="M29.436 52.705c.142 0 .426-.142.567-.142V36.666h-.567v16.039zm2.697-.568c.142 0 .425-.142.567-.142V36.808h-.567v15.329zm2.697-.851c.141-.142.425-.142.567-.284V36.666h-.568v14.62zm-8.091 1.845h.568V36.808h-.568v16.323zm13.484-4.968c.142-.142.426-.284.568-.568V36.666h-.568v11.497zm2.697-2.981c.284-.284.426-.71.568-1.135v-7.523h-.568v8.658zm-5.394 4.826c.142-.142.426-.284.568-.284V36.808h-.568v13.2zM23.9 53.273h.568V36.666H23.9v16.607zm-2.697 0h.568V36.666h-.568v16.607zm-5.393-.568c.141 0 .425.142.567.142V36.808h-.568v15.897zm2.696.426h.568V36.666h-.568v16.465zm-5.394-1.136c.142 0 .426.142.568.142V36.666h-.568v15.329zM2.325 44.756c.142.284.426.71.568.994v-8.942h-.568v7.948zm2.697 3.123c.142.142.426.284.568.426V36.666h-.568v11.213zm5.393 3.265c.142.142.426.142.568.284v-14.62h-.568v14.336zm-2.696-1.42c.142.142.425.284.567.284V36.666H7.72v13.058z" fill="#FDD65B"/><path d="M22.764 46.885c-11.639 0-21.149-5.394-21.433-12.065v.426c0 6.955 9.652 12.491 21.575 12.491 11.924 0 21.575-5.678 21.575-12.49v-.427c-.567 6.671-10.077 12.065-21.717 12.065z" fill="url(#paint17_linear)"/><path d="M23.332 32.611c8.659 0 15.614 3.975 16.04 8.943v-.568c0-5.11-7.24-9.368-16.04-9.368-8.942 0-16.04 4.258-16.04 9.368v.568c.427-4.968 7.382-8.943 16.04-8.943z" fill="url(#paint18_radial)"/><path d="M22.764 33.179c8.659 0 15.614 3.974 16.04 8.942v-.567c0-5.11-7.24-9.369-16.04-9.369-8.942 0-16.039 4.259-16.039 9.369v.567c.426-5.11 7.523-8.942 16.04-8.942z" fill="url(#paint19_linear)"/><path d="M22.764 46.947c11.916 0 21.575-5.592 21.575-12.491 0-6.898-9.66-12.491-21.575-12.491S1.19 27.558 1.19 34.456c0 6.899 9.66 12.491 21.575 12.491z" fill="url(#paint20_linear)"/><path d="M38.946 34.456c0 5.11-7.24 9.368-16.04 9.368-8.942 0-16.04-4.258-16.04-9.368s7.24-9.368 16.04-9.368c8.8 0 16.04 4.116 16.04 9.368z" fill="url(#paint21_linear)"/><path d="M23.332 25.514c8.659 0 15.614 3.974 16.04 8.942v-.567c0-5.11-7.24-9.368-16.04-9.368-8.942 0-16.04 4.258-16.04 9.368v.567c.427-4.968 7.382-8.942 16.04-8.942z" fill="url(#paint22_radial)"/><path d="M22.764 26.082c8.659 0 15.614 3.974 16.04 8.942v-.568c0-5.11-7.24-9.368-16.04-9.368-8.942 0-16.039 4.258-16.039 9.368v.568c.426-5.11 7.523-8.942 16.04-8.942z" fill="url(#paint23_linear)"/><path d="M44.34 27.501H1.19v6.245c0 6.956 9.651 12.491 21.574 12.491 11.923 0 21.575-5.677 21.575-12.491v-6.245z" fill="url(#paint24_linear)"/><path d="M22.764 44.96c-11.923 0-21.575-5.678-21.575-12.491v1.277c0 6.955 9.652 12.491 21.575 12.491S44.34 40.56 44.34 33.746v-1.277c0 6.955-9.652 12.491-21.575 12.491z" fill="url(#paint25_linear)"/><path d="M29.436 45.67c.142 0 .426-.142.567-.142V29.631h-.567V45.67zm2.697-.568c.142 0 .425-.142.567-.142V29.773h-.567v15.329zm2.697-.851c.141-.142.425-.142.567-.284V29.631h-.568v14.62zm-8.091 1.845h.568V29.773h-.568v16.323zm13.484-4.968c.142-.142.426-.284.568-.568V29.631h-.568v11.497zm2.697-2.981c.284-.284.426-.71.568-1.135v-7.523h-.568v8.658zm-5.394 4.826c.142-.142.426-.284.568-.284V29.773h-.568v13.2zM23.9 46.238h.568V29.631H23.9v16.607zm-2.697 0h.568V29.631h-.568v16.607zm-5.393-.568c.141 0 .425.142.567.142v-16.04h-.568V45.67zm2.696.426h.568V29.631h-.568v16.465zm-5.394-1.136c.142 0 .426.142.568.142V29.631h-.568V44.96zM2.325 37.72c.142.285.426.71.568.995v-8.942h-.568v7.948zm2.697 3.124c.142.142.426.284.568.426V29.631h-.568v11.213zm5.393 3.265c.142.142.426.142.568.284v-14.62h-.568v14.336zm-2.696-1.42c.142.142.425.284.567.284V29.631H7.72v13.058z" fill="#FDD65B"/><path d="M22.764 40.134c11.916 0 21.575-5.592 21.575-12.491 0-6.898-9.66-12.491-21.575-12.491S1.19 20.745 1.19 27.643c0 6.899 9.66 12.491 21.575 12.491z" fill="url(#paint26_linear)"/><path d="M22.764 39.85c-11.639 0-21.149-5.394-21.433-12.065v.426c0 6.955 9.652 12.491 21.575 12.491 11.924 0 21.575-5.678 21.575-12.491v-.426c-.567 6.671-10.077 12.065-21.717 12.065z" fill="url(#paint27_linear)"/><path d="M38.946 27.643c0 5.11-7.24 9.368-16.04 9.368-8.942 0-16.04-4.258-16.04-9.368s7.24-9.368 16.04-9.368c8.8 0 16.04 4.116 16.04 9.368z" fill="url(#paint28_linear)"/><path d="M23.332 18.701c8.659 0 15.614 3.974 16.04 8.942v-.568c0-5.11-7.24-9.368-16.04-9.368-8.942 0-16.04 4.258-16.04 9.368v.568c.427-4.968 7.382-8.942 16.04-8.942z" fill="url(#paint29_radial)"/><path d="M22.764 19.268c8.659 0 15.614 3.975 16.04 8.943v-.568c0-5.11-7.24-9.368-16.04-9.368-8.942 0-16.039 4.258-16.039 9.368v.568c.426-4.968 7.523-8.943 16.04-8.943z" fill="url(#paint30_linear)"/><path d="M44.34 20.405H1.19v6.245c0 6.955 9.651 12.491 21.574 12.491 11.923 0 21.575-5.678 21.575-12.491v-6.245z" fill="url(#paint31_linear)"/><path d="M22.764 37.863c-11.923 0-21.575-5.677-21.575-12.49v1.277c0 6.955 9.652 12.491 21.575 12.491S44.34 33.463 44.34 26.65v-1.419c0 6.955-9.652 12.632-21.575 12.632z" fill="url(#paint32_linear)"/><path d="M29.436 38.573c.142 0 .426-.142.567-.142V22.534h-.567v16.039zm2.697-.71c.142 0 .425-.141.567-.141V22.534h-.567v15.329zm2.697-.852c.141-.142.425-.141.567-.283V22.391h-.568v14.62zM26.739 39h.568V22.674h-.568v16.324zm13.484-4.97c.142-.141.426-.283.568-.567v-10.93h-.568v11.498zm2.697-2.98c.284-.284.426-.71.568-1.136v-7.523h-.568v8.659zm-5.394 4.684c.142-.142.426-.284.568-.284V22.534h-.568v13.2zM23.9 39.14h.568V22.535H23.9V39.14zm-2.697 0h.568V22.535h-.568V39.14zm-5.393-.71c.141 0 .425.143.567.143v-16.04h-.568v15.898zm2.696.427h.568V22.391h-.568v16.466zm-5.394-.994c.142 0 .426.142.568.142V22.534h-.568v15.329zM2.325 30.482c.142.284.426.709.568.993v-8.942h-.568v7.949zm2.697 3.265c.142.142.426.284.568.426v-11.64h-.568v11.214zm5.393 3.123c.142.142.426.142.568.284v-14.62h-.568V36.87zm-2.696-1.278c.142.142.425.284.567.284V22.534H7.72v13.058z" fill="#FDD65B"/><path d="M22.764 32.895c11.916 0 21.575-5.592 21.575-12.49 0-6.899-9.66-12.49-21.575-12.49S1.19 13.505 1.19 20.404c0 6.898 9.66 12.49 21.575 12.49z" fill="url(#paint33_linear)"/><path d="M22.764 32.611c-11.639 0-21.149-5.393-21.433-12.065v.426c0 6.955 9.652 12.491 21.575 12.491 11.924 0 21.575-5.678 21.575-12.491v-.426c-.567 6.672-10.077 12.065-21.717 12.065z" fill="url(#paint34_linear)"/><path d="M22.764 29.773c8.859 0 16.04-4.194 16.04-9.368s-7.181-9.369-16.04-9.369c-8.858 0-16.039 4.195-16.039 9.369 0 5.174 7.181 9.368 16.04 9.368z" fill="url(#paint35_linear)"/><path d="M23.332 11.604c8.659 0 15.614 3.975 16.04 8.942v-.567c0-5.11-7.24-9.368-16.04-9.368-8.942 0-16.04 4.258-16.04 9.368v.567c.427-5.109 7.382-8.942 16.04-8.942z" fill="url(#paint36_radial)"/><path d="M22.764 12.03c8.659 0 15.614 3.974 16.04 8.942v-.567c0-5.11-7.24-9.369-16.04-9.369-8.942 0-16.039 4.259-16.039 9.369v.567c.426-4.968 7.523-8.942 16.04-8.942z" fill="url(#paint37_linear)"/><path d="M44.34 13.165H1.19v6.246c0 6.955 9.651 12.491 21.574 12.491 11.923 0 21.575-5.678 21.575-12.491v-6.246z" fill="url(#paint38_linear)"/><path d="M22.764 30.624c-11.923 0-21.575-5.677-21.575-12.49v1.277c0 6.955 9.652 12.491 21.575 12.491s21.575-5.678 21.575-12.49v-1.279c0 6.814-9.652 12.491-21.575 12.491z" fill="url(#paint39_linear)"/><path d="M29.436 31.334c.142 0 .426-.142.567-.142V15.295h-.567v16.039zm2.697-.71c.142 0 .425-.141.567-.141V15.295h-.567v15.329zm2.697-.851c.141-.142.425-.142.567-.284V15.295h-.568v14.478zm-8.091 1.845h.568V15.295h-.568v16.323zm13.484-4.968c.142-.142.426-.284.568-.568V15.295h-.568V26.65zm2.697-2.839c.284-.284.426-.709.568-1.135v-7.381h-.568v8.516zm-5.394 4.684c.142-.142.426-.284.568-.284V15.295h-.568v13.2zM23.9 31.902h.568V15.295H23.9v16.607zm-2.697 0h.568V15.295h-.568v16.607zm-5.393-.71c.141 0 .425.142.567.142V15.295h-.568v15.897zm2.696.426h.568V15.295h-.568v16.323zm-5.394-.994c.142 0 .426.142.568.142V15.295h-.568v15.329zm-10.787-7.38c.142.284.426.709.568.993v-8.942h-.568v7.949zm2.697 3.264c.142.142.426.284.568.426V15.295h-.568v11.213zm5.393 3.123c.142.142.426.142.568.284v-14.62h-.568v14.336zm-2.696-1.278c.142.142.425.284.567.284V15.295H7.72v13.058z" fill="#FDD65B"/><path d="M22.764 25.656c11.916 0 21.575-5.592 21.575-12.49C44.34 6.266 34.68.674 22.764.674S1.19 6.267 1.19 13.165c0 6.9 9.66 12.491 21.575 12.491z" fill="url(#paint40_linear)"/><path d="M22.765 25.373c-11.64 0-21.15-5.394-21.434-12.065v.425c0 6.956 9.652 12.491 21.575 12.491 11.924 0 21.575-5.677 21.575-12.491v-.425c-.567 6.671-10.077 12.065-21.716 12.065z" fill="url(#paint41_linear)"/><path d="M38.946 13.165c0 5.11-7.24 9.369-16.04 9.369-8.942 0-16.04-4.259-16.04-9.369 0-5.11 7.24-9.368 16.04-9.368 8.8 0 16.04 4.258 16.04 9.368z" fill="url(#paint42_linear)"/><path d="M23.332 4.223c8.659 0 15.614 3.974 16.04 8.942v-.567c0-5.11-7.24-9.369-16.04-9.369-8.942 0-16.04 4.259-16.04 9.369v.567c.427-4.968 7.382-8.942 16.04-8.942z" fill="url(#paint43_linear)"/><path d="M22.765 4.791c8.658 0 15.613 3.974 16.039 8.942v-.568c0-5.11-7.24-9.368-16.04-9.368-8.942 0-16.039 4.258-16.039 9.368v.568c.426-4.968 7.523-8.942 16.04-8.942z" fill="url(#paint44_linear)"/><path style="mix-blend-mode:color-dodge" d="M12.829 14.585c4.4.852 6.387 9.226 4.542 18.736-1.845 9.51-6.955 16.607-11.356 15.756-4.4-.852-6.387-9.226-4.542-18.737 1.845-9.51 6.955-16.607 11.355-15.755z" fill="url(#paint45_radial)"/><path style="mix-blend-mode:color-dodge" d="M34.12 1.1c4.826 1.704 8.09 4.968 7.239 7.381-.852 2.413-5.394 2.981-10.22 1.42-4.826-1.703-8.09-4.968-7.239-7.381.852-2.413 5.394-3.123 10.22-1.42z" fill="url(#paint46_radial)"/><path d="M28.016 11.179l5.394.993c.852.142 1.136.852.284 1.136l-4.684 1.845c-.284.142-.426.284-.426.568l.142 3.264c0 .568-1.136.852-1.845.568l-4.542-1.987c-.284-.142-.71-.142-.994-.142l-5.394.994c-.851.141-1.703-.284-1.42-.852l1.846-3.123c.142-.142 0-.426-.142-.568l-3.406-2.696c-.568-.426 0-1.136.993-.994H19.5c.426 0 .71-.142.993-.284l3.265-2.697c.568-.426 1.703-.284 1.987.142l1.704 3.123c-.142.426.141.568.567.71z" fill="url(#paint47_linear)"/><path d="M28.016 10.469l5.394.993c.852.142 1.136.852.284 1.136l-4.684 1.845c-.284.142-.426.284-.426.568l.142 3.264c0 .568-1.136.852-1.845.568l-4.542-1.987c-.284-.142-.71-.142-.994-.142l-5.394.994c-.851.142-1.703-.284-1.42-.852l1.846-3.123c.142-.142 0-.426-.142-.567l-3.406-2.697c-.568-.426 0-1.136.993-.994H19.5c.426 0 .71-.142.993-.284l3.265-2.697c.568-.426 1.703-.284 1.987.142l1.704 3.123c-.142.568.141.71.567.71z" fill="url(#paint48_linear)"/><path d="M28.016 10.469l5.394.993c.852.142 1.136.852.284 1.136l-4.684 1.845c-.284.142-.426.284-.426.568l.142 3.264c0 .568-1.136.852-1.845.568l-4.542-1.987c-.284-.142-.71-.142-.994-.142l-5.394.994c-.851.142-1.703-.284-1.42-.852l1.846-3.123c.142-.142 0-.426-.142-.567l-3.406-2.697c-.568-.426 0-1.136.993-.994H19.5c.426 0 .71-.142.993-.284l3.265-2.697c.568-.426 1.703-.284 1.987.142l1.704 3.123c-.142.568.141.71.567.71z" fill="url(#paint49_linear)"/><defs><linearGradient id="paint0_linear" x1="62.389" y1="35.395" x2="20.256" y2="77.796" gradientUnits="userSpaceOnUse"><stop offset=".035" stop-color="#FFBA78"/><stop offset=".395" stop-color="#FFC987"/><stop offset="1" stop-color="#FEECA8"/></linearGradient><linearGradient id="paint1_linear" x1="1.255" y1="77.96" x2="43.653" y2="77.96" gradientUnits="userSpaceOnUse"><stop stop-color="#FFBB96"/><stop offset=".227" stop-color="#FFFBC9"/><stop offset=".54" stop-color="#F9B673"/><stop offset=".639" stop-color="#F9B876"/><stop offset=".725" stop-color="#FABE81"/><stop offset=".806" stop-color="#FCC993"/><stop offset=".859" stop-color="#FED2A3"/><stop offset=".97" stop-color="#FFC28C"/></linearGradient><linearGradient id="paint2_linear" x1="1.397" y1="75.256" x2="43.795" y2="75.256" gradientUnits="userSpaceOnUse"><stop stop-color="#FFBB96"/><stop offset=".227" stop-color="#FFFBC9"/><stop offset=".54" stop-color="#F9B673"/><stop offset=".639" stop-color="#F9B876"/><stop offset=".725" stop-color="#FABE81"/><stop offset=".806" stop-color="#FCC993"/><stop offset=".859" stop-color="#FED2A3"/><stop offset=".97" stop-color="#FFC28C"/></linearGradient><linearGradient id="paint3_linear" x1="62.578" y1="28.395" x2="20.445" y2="70.796" gradientUnits="userSpaceOnUse"><stop offset=".035" stop-color="#FFBA78"/><stop offset=".395" stop-color="#FFC987"/><stop offset="1" stop-color="#FEECA8"/></linearGradient><linearGradient id="paint4_linear" x1="1.444" y1="70.96" x2="43.842" y2="70.96" gradientUnits="userSpaceOnUse"><stop stop-color="#FFBB96"/><stop offset=".227" stop-color="#FFFBC9"/><stop offset=".54" stop-color="#F9B673"/><stop offset=".639" stop-color="#F9B876"/><stop offset=".725" stop-color="#FABE81"/><stop offset=".806" stop-color="#FCC993"/><stop offset=".859" stop-color="#FED2A3"/><stop offset=".97" stop-color="#FFC28C"/></linearGradient><linearGradient id="paint5_linear" x1="1.586" y1="68.256" x2="43.984" y2="68.256" gradientUnits="userSpaceOnUse"><stop stop-color="#FFBB96"/><stop offset=".227" stop-color="#FFFBC9"/><stop offset=".54" stop-color="#F9B673"/><stop offset=".639" stop-color="#F9B876"/><stop offset=".725" stop-color="#FABE81"/><stop offset=".806" stop-color="#FCC993"/><stop offset=".859" stop-color="#FED2A3"/><stop offset=".97" stop-color="#FFC28C"/></linearGradient><linearGradient id="paint6_linear" x1="62.578" y1="22.395" x2="20.445" y2="64.796" gradientUnits="userSpaceOnUse"><stop offset=".035" stop-color="#FFBA78"/><stop offset=".395" stop-color="#FFC987"/><stop offset="1" stop-color="#FEECA8"/></linearGradient><linearGradient id="paint7_linear" x1="1.444" y1="64.96" x2="43.842" y2="64.96" gradientUnits="userSpaceOnUse"><stop stop-color="#FFBB96"/><stop offset=".227" stop-color="#FFFBC9"/><stop offset=".54" stop-color="#F9B673"/><stop offset=".639" stop-color="#F9B876"/><stop offset=".725" stop-color="#FABE81"/><stop offset=".806" stop-color="#FCC993"/><stop offset=".859" stop-color="#FED2A3"/><stop offset=".97" stop-color="#FFC28C"/></linearGradient><linearGradient id="paint8_linear" x1="1.586" y1="62.256" x2="43.984" y2="62.256" gradientUnits="userSpaceOnUse"><stop stop-color="#FFBB96"/><stop offset=".227" stop-color="#FFFBC9"/><stop offset=".54" stop-color="#F9B673"/><stop offset=".639" stop-color="#F9B876"/><stop offset=".725" stop-color="#FABE81"/><stop offset=".806" stop-color="#FCC993"/><stop offset=".859" stop-color="#FED2A3"/><stop offset=".97" stop-color="#FFC28C"/></linearGradient><linearGradient id="paint9_linear" x1="62.578" y1="15.395" x2="20.445" y2="57.796" gradientUnits="userSpaceOnUse"><stop offset=".035" stop-color="#FFBA78"/><stop offset=".395" stop-color="#FFC987"/><stop offset="1" stop-color="#FEECA8"/></linearGradient><linearGradient id="paint10_linear" x1="1.444" y1="57.96" x2="43.842" y2="57.96" gradientUnits="userSpaceOnUse"><stop stop-color="#FFBB96"/><stop offset=".227" stop-color="#FFFBC9"/><stop offset=".54" stop-color="#F9B673"/><stop offset=".639" stop-color="#F9B876"/><stop offset=".725" stop-color="#FABE81"/><stop offset=".806" stop-color="#FCC993"/><stop offset=".859" stop-color="#FED2A3"/><stop offset=".97" stop-color="#FFC28C"/></linearGradient><linearGradient id="paint11_linear" x1="1.586" y1="55.256" x2="43.984" y2="55.256" gradientUnits="userSpaceOnUse"><stop stop-color="#FFBB96"/><stop offset=".227" stop-color="#FFFBC9"/><stop offset=".54" stop-color="#F9B673"/><stop offset=".639" stop-color="#F9B876"/><stop offset=".725" stop-color="#FABE81"/><stop offset=".806" stop-color="#FCC993"/><stop offset=".859" stop-color="#FED2A3"/><stop offset=".97" stop-color="#FFC28C"/></linearGradient><linearGradient id="paint12_linear" x1="62.578" y1="8.395" x2="20.445" y2="50.796" gradientUnits="userSpaceOnUse"><stop offset=".035" stop-color="#FFBA78"/><stop offset=".395" stop-color="#FFC987"/><stop offset="1" stop-color="#FEECA8"/></linearGradient><linearGradient id="paint13_linear" x1="1.444" y1="50.96" x2="43.842" y2="50.96" gradientUnits="userSpaceOnUse"><stop stop-color="#FFBB96"/><stop offset=".227" stop-color="#FFFBC9"/><stop offset=".54" stop-color="#F9B673"/><stop offset=".639" stop-color="#F9B876"/><stop offset=".725" stop-color="#FABE81"/><stop offset=".806" stop-color="#FCC993"/><stop offset=".859" stop-color="#FED2A3"/><stop offset=".97" stop-color="#FFC28C"/></linearGradient><linearGradient id="paint14_linear" x1="1.586" y1="48.256" x2="43.984" y2="48.256" gradientUnits="userSpaceOnUse"><stop stop-color="#FFBB96"/><stop offset=".227" stop-color="#FFFBC9"/><stop offset=".54" stop-color="#F9B673"/><stop offset=".639" stop-color="#F9B876"/><stop offset=".725" stop-color="#FABE81"/><stop offset=".806" stop-color="#FCC993"/><stop offset=".859" stop-color="#FED2A3"/><stop offset=".97" stop-color="#FFC28C"/></linearGradient><linearGradient id="paint15_linear" x1="62.578" y1="1.395" x2="20.445" y2="43.796" gradientUnits="userSpaceOnUse"><stop offset=".035" stop-color="#FFBA78"/><stop offset=".395" stop-color="#FFC987"/><stop offset="1" stop-color="#FEECA8"/></linearGradient><linearGradient id="paint16_linear" x1="1.444" y1="43.96" x2="43.842" y2="43.96" gradientUnits="userSpaceOnUse"><stop stop-color="#FFBB96"/><stop offset=".227" stop-color="#FFFBC9"/><stop offset=".54" stop-color="#F9B673"/><stop offset=".639" stop-color="#F9B876"/><stop offset=".725" stop-color="#FABE81"/><stop offset=".806" stop-color="#FCC993"/><stop offset=".859" stop-color="#FED2A3"/><stop offset=".97" stop-color="#FFC28C"/></linearGradient><linearGradient id="paint17_linear" x1="1.586" y1="41.256" x2="43.984" y2="41.256" gradientUnits="userSpaceOnUse"><stop stop-color="#FFBB96"/><stop offset=".227" stop-color="#FFFBC9"/><stop offset=".54" stop-color="#F9B673"/><stop offset=".639" stop-color="#F9B876"/><stop offset=".725" stop-color="#FABE81"/><stop offset=".806" stop-color="#FCC993"/><stop offset=".859" stop-color="#FED2A3"/><stop offset=".97" stop-color="#FFC28C"/></linearGradient><linearGradient id="paint19_linear" x1="45.885" y1="17.233" x2="16.162" y2="47.145" gradientUnits="userSpaceOnUse"><stop stop-color="#FFBB96"/><stop offset=".227" stop-color="#FFFBC9"/><stop offset=".54" stop-color="#F9B673"/><stop offset=".639" stop-color="#F9B876"/><stop offset=".725" stop-color="#FABE81"/><stop offset=".806" stop-color="#FCC993"/><stop offset=".859" stop-color="#FED2A3"/><stop offset=".97" stop-color="#FFC28C"/></linearGradient><linearGradient id="paint20_linear" x1="62.578" y1="-5.64" x2="20.445" y2="36.761" gradientUnits="userSpaceOnUse"><stop offset=".035" stop-color="#FFBA78"/><stop offset=".395" stop-color="#FFC987"/><stop offset="1" stop-color="#FEECA8"/></linearGradient><linearGradient id="paint21_linear" x1="40.088" y1="16.994" x2="8.593" y2="48.69" gradientUnits="userSpaceOnUse"><stop offset=".035" stop-color="#FFBA78"/><stop offset=".395" stop-color="#FFC987"/><stop offset="1" stop-color="#FEECA8"/></linearGradient><linearGradient id="paint23_linear" x1="45.885" y1="10.129" x2="16.163" y2="40.041" gradientUnits="userSpaceOnUse"><stop stop-color="#FFBB96"/><stop offset=".227" stop-color="#FFFBC9"/><stop offset=".54" stop-color="#F9B673"/><stop offset=".639" stop-color="#F9B876"/><stop offset=".725" stop-color="#FABE81"/><stop offset=".806" stop-color="#FCC993"/><stop offset=".859" stop-color="#FED2A3"/><stop offset=".97" stop-color="#FFC28C"/></linearGradient><linearGradient id="paint24_linear" x1="1.444" y1="36.925" x2="43.842" y2="36.925" gradientUnits="userSpaceOnUse"><stop stop-color="#FFBB96"/><stop offset=".227" stop-color="#FFFBC9"/><stop offset=".54" stop-color="#F9B673"/><stop offset=".639" stop-color="#F9B876"/><stop offset=".725" stop-color="#FABE81"/><stop offset=".806" stop-color="#FCC993"/><stop offset=".859" stop-color="#FED2A3"/><stop offset=".97" stop-color="#FFC28C"/></linearGradient><linearGradient id="paint25_linear" x1="1.444" y1="39.379" x2="43.842" y2="39.379" gradientUnits="userSpaceOnUse"><stop stop-color="#FFBB96"/><stop offset=".227" stop-color="#FFFBC9"/><stop offset=".54" stop-color="#F9B673"/><stop offset=".639" stop-color="#F9B876"/><stop offset=".725" stop-color="#FABE81"/><stop offset=".806" stop-color="#FCC993"/><stop offset=".859" stop-color="#FED2A3"/><stop offset=".97" stop-color="#FFC28C"/></linearGradient><linearGradient id="paint26_linear" x1="62.578" y1="-12.438" x2="20.445" y2="29.963" gradientUnits="userSpaceOnUse"><stop offset=".035" stop-color="#FFBA78"/><stop offset=".395" stop-color="#FFC987"/><stop offset="1" stop-color="#FEECA8"/></linearGradient><linearGradient id="paint27_linear" x1="1.586" y1="34.221" x2="43.984" y2="34.221" gradientUnits="userSpaceOnUse"><stop stop-color="#FFBB96"/><stop offset=".227" stop-color="#FFFBC9"/><stop offset=".54" stop-color="#F9B673"/><stop offset=".639" stop-color="#F9B876"/><stop offset=".725" stop-color="#FABE81"/><stop offset=".806" stop-color="#FCC993"/><stop offset=".859" stop-color="#FED2A3"/><stop offset=".97" stop-color="#FFC28C"/></linearGradient><linearGradient id="paint28_linear" x1="40.088" y1="10.195" x2="8.593" y2="41.891" gradientUnits="userSpaceOnUse"><stop offset=".035" stop-color="#FFBA78"/><stop offset=".395" stop-color="#FFC987"/><stop offset="1" stop-color="#FEECA8"/></linearGradient><linearGradient id="paint30_linear" x1="45.885" y1="3.33" x2="16.162" y2="33.242" gradientUnits="userSpaceOnUse"><stop stop-color="#FFBB96"/><stop offset=".227" stop-color="#FFFBC9"/><stop offset=".54" stop-color="#F9B673"/><stop offset=".639" stop-color="#F9B876"/><stop offset=".725" stop-color="#FABE81"/><stop offset=".806" stop-color="#FCC993"/><stop offset=".859" stop-color="#FED2A3"/><stop offset=".97" stop-color="#FFC28C"/></linearGradient><linearGradient id="paint31_linear" x1="1.444" y1="29.769" x2="43.842" y2="29.769" gradientUnits="userSpaceOnUse"><stop stop-color="#FFBB96"/><stop offset=".227" stop-color="#FFFBC9"/><stop offset=".54" stop-color="#F9B673"/><stop offset=".639" stop-color="#F9B876"/><stop offset=".725" stop-color="#FABE81"/><stop offset=".806" stop-color="#FCC993"/><stop offset=".859" stop-color="#FED2A3"/><stop offset=".97" stop-color="#FFC28C"/></linearGradient><linearGradient id="paint32_linear" x1="1.444" y1="32.223" x2="43.842" y2="32.223" gradientUnits="userSpaceOnUse"><stop stop-color="#FFBB96"/><stop offset=".227" stop-color="#FFFBC9"/><stop offset=".54" stop-color="#F9B673"/><stop offset=".639" stop-color="#F9B876"/><stop offset=".725" stop-color="#FABE81"/><stop offset=".806" stop-color="#FCC993"/><stop offset=".859" stop-color="#FED2A3"/><stop offset=".97" stop-color="#FFC28C"/></linearGradient><linearGradient id="paint33_linear" x1="62.578" y1="-19.594" x2="20.445" y2="22.807" gradientUnits="userSpaceOnUse"><stop offset=".035" stop-color="#FFBA78"/><stop offset=".395" stop-color="#FFC987"/><stop offset="1" stop-color="#FEECA8"/></linearGradient><linearGradient id="paint34_linear" x1="1.586" y1="26.982" x2="43.984" y2="26.982" gradientUnits="userSpaceOnUse"><stop stop-color="#FFBB96"/><stop offset=".227" stop-color="#FFFBC9"/><stop offset=".54" stop-color="#F9B673"/><stop offset=".639" stop-color="#F9B876"/><stop offset=".725" stop-color="#FABE81"/><stop offset=".806" stop-color="#FCC993"/><stop offset=".859" stop-color="#FED2A3"/><stop offset=".97" stop-color="#FFC28C"/></linearGradient><linearGradient id="paint35_linear" x1="40.088" y1="3.04" x2="8.592" y2="34.736" gradientUnits="userSpaceOnUse"><stop offset=".035" stop-color="#FFBA78"/><stop offset=".395" stop-color="#FFC987"/><stop offset="1" stop-color="#FEECA8"/></linearGradient><linearGradient id="paint37_linear" x1="45.885" y1="-3.825" x2="16.163" y2="26.087" gradientUnits="userSpaceOnUse"><stop stop-color="#FFBB96"/><stop offset=".227" stop-color="#FFFBC9"/><stop offset=".54" stop-color="#F9B673"/><stop offset=".639" stop-color="#F9B876"/><stop offset=".725" stop-color="#FABE81"/><stop offset=".806" stop-color="#FCC993"/><stop offset=".859" stop-color="#FED2A3"/><stop offset=".97" stop-color="#FFC28C"/></linearGradient><linearGradient id="paint38_linear" x1="1.444" y1="22.501" x2="43.842" y2="22.501" gradientUnits="userSpaceOnUse"><stop stop-color="#FFBB96"/><stop offset=".227" stop-color="#FFFBC9"/><stop offset=".54" stop-color="#F9B673"/><stop offset=".639" stop-color="#F9B876"/><stop offset=".725" stop-color="#FABE81"/><stop offset=".806" stop-color="#FCC993"/><stop offset=".859" stop-color="#FED2A3"/><stop offset=".97" stop-color="#FFC28C"/></linearGradient><linearGradient id="paint39_linear" x1="1.444" y1="24.955" x2="43.842" y2="24.955" gradientUnits="userSpaceOnUse"><stop stop-color="#FFBB96"/><stop offset=".227" stop-color="#FFFBC9"/><stop offset=".54" stop-color="#F9B673"/><stop offset=".639" stop-color="#F9B876"/><stop offset=".725" stop-color="#FABE81"/><stop offset=".806" stop-color="#FCC993"/><stop offset=".859" stop-color="#FED2A3"/><stop offset=".97" stop-color="#FFC28C"/></linearGradient><linearGradient id="paint40_linear" x1="62.578" y1="-26.862" x2="20.445" y2="15.539" gradientUnits="userSpaceOnUse"><stop offset=".035" stop-color="#FFBA78"/><stop offset=".395" stop-color="#FFC987"/><stop offset="1" stop-color="#FEECA8"/></linearGradient><linearGradient id="paint41_linear" x1="1.586" y1="19.744" x2="43.984" y2="19.744" gradientUnits="userSpaceOnUse"><stop stop-color="#FFBB96"/><stop offset=".227" stop-color="#FFFBC9"/><stop offset=".54" stop-color="#F9B673"/><stop offset=".639" stop-color="#F9B876"/><stop offset=".725" stop-color="#FABE81"/><stop offset=".806" stop-color="#FCC993"/><stop offset=".859" stop-color="#FED2A3"/><stop offset=".97" stop-color="#FFC28C"/></linearGradient><linearGradient id="paint42_linear" x1="40.088" y1="-4.229" x2="8.592" y2="27.468" gradientUnits="userSpaceOnUse"><stop offset=".035" stop-color="#FFBA78"/><stop offset=".395" stop-color="#FFC987"/><stop offset="1" stop-color="#FEECA8"/></linearGradient><linearGradient id="paint43_linear" x1="7.482" y1="8.18" x2="39.002" y2="8.18" gradientUnits="userSpaceOnUse"><stop stop-color="#FFBB96"/><stop offset=".227" stop-color="#FFFBC9"/><stop offset=".54" stop-color="#F9B673"/><stop offset=".639" stop-color="#F9B876"/><stop offset=".725" stop-color="#FABE81"/><stop offset=".806" stop-color="#FCC993"/><stop offset=".859" stop-color="#FED2A3"/><stop offset=".97" stop-color="#FFC28C"/></linearGradient><linearGradient id="paint44_linear" x1="45.885" y1="-11.093" x2="16.163" y2="18.819" gradientUnits="userSpaceOnUse"><stop stop-color="#FFBB96"/><stop offset=".227" stop-color="#FFFBC9"/><stop offset=".54" stop-color="#F9B673"/><stop offset=".639" stop-color="#F9B876"/><stop offset=".725" stop-color="#FABE81"/><stop offset=".806" stop-color="#FCC993"/><stop offset=".859" stop-color="#FED2A3"/><stop offset=".97" stop-color="#FFC28C"/></linearGradient><linearGradient id="paint47_linear" x1="12.398" y1="13.383" x2="34.285" y2="13.383" gradientUnits="userSpaceOnUse"><stop stop-color="#FFBB96"/><stop offset=".227" stop-color="#FFFBC9"/><stop offset=".54" stop-color="#F9B673"/><stop offset=".639" stop-color="#F9B876"/><stop offset=".725" stop-color="#FABE81"/><stop offset=".806" stop-color="#FCC993"/><stop offset=".859" stop-color="#FED2A3"/><stop offset=".97" stop-color="#FFC28C"/></linearGradient><linearGradient id="paint48_linear" x1="1.208" y1="31.043" x2="26.682" y2="9.109" gradientUnits="userSpaceOnUse"><stop offset=".035" stop-color="#FFBA78"/><stop offset=".395" stop-color="#FFC987"/><stop offset="1" stop-color="#FEECA8"/></linearGradient><linearGradient id="paint49_linear" x1="43.34" y1="-7.782" x2="21.892" y2="13.447" gradientUnits="userSpaceOnUse"><stop offset=".035" stop-color="#FFBA78"/><stop offset=".395" stop-color="#FFC987"/><stop offset="1" stop-color="#FEECA8"/></linearGradient><radialGradient id="paint18_radial" cx="0" cy="0" r="1" gradientUnits="userSpaceOnUse" gradientTransform="translate(30.36 31.243) scale(11.9093)"><stop stop-color="#fff"/><stop offset="1"/></radialGradient><radialGradient id="paint22_radial" cx="0" cy="0" r="1" gradientUnits="userSpaceOnUse" gradientTransform="translate(30.36 24.14) scale(11.9093)"><stop stop-color="#fff"/><stop offset="1"/></radialGradient><radialGradient id="paint29_radial" cx="0" cy="0" r="1" gradientUnits="userSpaceOnUse" gradientTransform="translate(30.36 17.341) scale(11.9095)"><stop stop-color="#fff"/><stop offset="1"/></radialGradient><radialGradient id="paint36_radial" cx="0" cy="0" r="1" gradientUnits="userSpaceOnUse" gradientTransform="translate(30.36 10.185) scale(11.9095)"><stop stop-color="#fff"/><stop offset="1"/></radialGradient><radialGradient id="paint45_radial" cx="0" cy="0" r="1" gradientUnits="userSpaceOnUse" gradientTransform="rotate(-67.516 28.54 8.816) scale(16.6038 8.48459)"><stop stop-color="#fff"/><stop offset="1" stop-color="#fff" stop-opacity="0"/></radialGradient><radialGradient id="paint46_radial" cx="0" cy="0" r="1" gradientUnits="userSpaceOnUse" gradientTransform="matrix(6.5174 -4.70003 3.22466 4.47154 32.689 5.464)"><stop stop-color="#fff"/><stop offset="1" stop-color="#fff" stop-opacity="0"/></radialGradient></defs></svg>