<svg width="102" height="177" fill="none" xmlns="http://www.w3.org/2000/svg"><g opacity=".95"><path opacity=".95" d="M21.465 60.832L.883 72.613l20.582 11.923 20.44-11.923-20.44-11.781z" fill="url(#paint0_linear)"/><g opacity=".95"><path opacity=".95" d="M1.309 114.344l20.582 11.781-.426-41.589L.883 72.613l.426 41.731z" fill="url(#paint1_linear)"/><path opacity=".95" d="M21.891 126.125l20.581-11.781-.568-41.731-20.439 11.923.426 41.589z" fill="url(#paint2_linear)"/></g></g><path style="mix-blend-mode:color-dodge" d="M41.904 72.613L21.465 83.684.883 72.613l19.872 12.349 1.136 41.163.567-41.305 19.446-12.207z" fill="url(#paint3_radial)"/><g opacity=".95"><path opacity=".95" d="M50.705 50.186L30.123 62.109 50.705 73.89l20.44-11.923-20.44-11.781z" fill="url(#paint4_linear)"/><path opacity=".95" d="M51.131 118.602L30.55 130.383l20.582 11.923 20.44-11.923-20.44-11.781z" fill="url(#paint5_linear)"/><g opacity=".95"><path opacity=".95" d="M30.55 130.809l20.581 11.923-.426-68.842-20.582-11.923.426 68.842z" fill="url(#paint6_linear)"/><path opacity=".95" d="M51.131 142.732l20.44-11.923-.427-68.842L50.705 73.89l.426 68.842z" fill="url(#paint7_linear)"/></g></g><path style="mix-blend-mode:color-dodge" d="M71.144 61.967L50.705 73.039 30.123 61.967l19.872 12.349 1.136 68.416.567-68.558 19.446-12.207z" fill="url(#paint8_radial)"/><g opacity=".95"><path opacity=".95" d="M80.938 22.649L60.499 34.572l20.439 11.782 20.582-11.782L80.938 22.65z" fill="url(#paint9_linear)"/><g opacity=".95"><path opacity=".95" d="M60.925 146.706l20.439 11.781-.426-112.133-20.439-11.781.426 112.133z" fill="url(#paint10_linear)"/><path opacity=".95" d="M81.364 158.487l20.582-11.781-.426-112.134-20.582 11.781.426 112.134z" fill="url(#paint11_linear)"/></g></g><path style="mix-blend-mode:color-dodge" d="M101.52 34.572l-20.44 10.93-20.581-10.93 19.872 12.207.993 111.708.568-111.85 19.588-12.065z" fill="url(#paint12_radial)"/><g opacity=".95"><path opacity=".95" d="M110.746.081L90.165 12.004l20.581 11.923 20.44-11.923L110.746.081z" fill="url(#paint13_linear)"/><path opacity=".95" d="M90.59 165.016l20.582 11.924-.426-153.013-20.581-11.923.425 153.012z" fill="url(#paint14_linear)"/></g><path style="mix-blend-mode:color-dodge" d="M131.186 12.004l-20.44 11.071-20.581-11.071 19.871 12.349 1.136 152.587.426-152.729 19.588-12.207z" fill="url(#paint15_radial)"/><defs><linearGradient id="paint0_linear" x1="10.106" y1="53.021" x2="27.261" y2="82.734" gradientUnits="userSpaceOnUse"><stop stop-color="#DD860E"/><stop offset="1" stop-color="#FFA62B"/></linearGradient><linearGradient id="paint1_linear" x1="18.391" y1="99.923" x2="-92.762" y2="91.399" gradientUnits="userSpaceOnUse"><stop stop-color="#DD860E"/><stop offset="1" stop-color="#FFA62B"/></linearGradient><linearGradient id="paint2_linear" x1="59.471" y1="94.768" x2="6.505" y2="103.642" gradientUnits="userSpaceOnUse"><stop stop-color="#D98C23"/><stop offset="1" stop-color="#FFA62B"/></linearGradient><linearGradient id="paint4_linear" x1="39.341" y1="42.42" x2="56.496" y2="72.132" gradientUnits="userSpaceOnUse"><stop stop-color="#DD860E"/><stop offset="1" stop-color="#FFA62B"/></linearGradient><linearGradient id="paint5_linear" x1="39.784" y1="110.796" x2="56.939" y2="140.509" gradientUnits="userSpaceOnUse"><stop stop-color="#DD860E"/><stop offset="1" stop-color="#FFA62B"/></linearGradient><linearGradient id="paint6_linear" x1="48.209" y1="102.962" x2="-72.184" y2="93.729" gradientUnits="userSpaceOnUse"><stop stop-color="#DD860E"/><stop offset="1" stop-color="#FFA62B"/></linearGradient><linearGradient id="paint7_linear" x1="93.026" y1="97.038" x2="31.757" y2="107.303" gradientUnits="userSpaceOnUse"><stop stop-color="#DD860E"/><stop offset="1" stop-color="#FFA62B"/></linearGradient><linearGradient id="paint9_linear" x1="69.667" y1="14.925" x2="86.822" y2="44.637" gradientUnits="userSpaceOnUse"><stop stop-color="#DD860E"/><stop offset="1" stop-color="#FFA62B"/></linearGradient><linearGradient id="paint10_linear" x1="79.462" y1="97.172" x2="-55.635" y2="86.812" gradientUnits="userSpaceOnUse"><stop stop-color="#DD860E"/><stop offset="1" stop-color="#FFA62B"/></linearGradient><linearGradient id="paint11_linear" x1="130.228" y1="90.026" x2="55.744" y2="102.505" gradientUnits="userSpaceOnUse"><stop stop-color="#DD860E"/><stop offset="1" stop-color="#FFA62B"/></linearGradient><linearGradient id="paint13_linear" x1="99.369" y1="-7.606" x2="116.523" y2="22.107" gradientUnits="userSpaceOnUse"><stop stop-color="#DD860E"/><stop offset="1" stop-color="#FFA62B"/></linearGradient><linearGradient id="paint14_linear" x1="110.042" y1="95.196" x2="-38.98" y2="83.768" gradientUnits="userSpaceOnUse"><stop stop-color="#DD860E"/><stop offset="1" stop-color="#FFA62B"/></linearGradient><radialGradient id="paint3_radial" cx="0" cy="0" r="1" gradientUnits="userSpaceOnUse" gradientTransform="rotate(180 19.268 42.894) scale(25.4475)"><stop stop-color="#fff"/><stop offset="1"/></radialGradient><radialGradient id="paint8_radial" cx="0" cy="0" r="1" gradientUnits="userSpaceOnUse" gradientTransform="rotate(180 33.885 40.935) scale(32.9984)"><stop stop-color="#fff"/><stop offset="1"/></radialGradient><radialGradient id="paint12_radial" cx="0" cy="0" r="1" gradientUnits="userSpaceOnUse" gradientTransform="rotate(180 49.047 32.507) scale(46.4752)"><stop stop-color="#fff"/><stop offset="1"/></radialGradient><radialGradient id="paint15_radial" cx="0" cy="0" r="1" gradientUnits="userSpaceOnUse" gradientTransform="rotate(180 63.898 26.279) scale(59.9304)"><stop stop-color="#fff"/><stop offset="1"/></radialGradient></defs></svg>