<svg width="199" height="45" fill="none" xmlns="http://www.w3.org/2000/svg"><path d="M85.631 26.3c-.78.319-1.678.639-2.678.918-.999.28-2.018.42-3.017.42-.7 0-1.38-.08-1.999-.26a4.538 4.538 0 01-1.638-.84c-.48-.379-.84-.898-1.12-1.538-.28-.64-.4-1.399-.4-2.298V13.03h-2.377V8.753h2.378V2.858h5.655v5.895h3.777v4.277h-3.777v7.714c0 .619.16 1.059.46 1.319.3.28.7.4 1.159.4.42 0 .86-.08 1.319-.22.44-.14.84-.3 1.159-.46l1.1 4.516zM99.62 13.61c-1.359.02-2.598.239-3.717.679-1.12.42-1.919 1.059-2.398 1.898v11.111h-5.656V8.793h5.196v3.737c.64-1.239 1.459-2.218 2.458-2.918 1-.7 2.079-1.079 3.198-1.099h.56c.12 0 .239.02.359.04v5.056zm10.332 14.028c-1.559 0-2.958-.26-4.197-.76-1.239-.5-2.298-1.198-3.158-2.058a8.843 8.843 0 01-1.958-3.017 9.885 9.885 0 01-.68-3.578c0-1.338.22-2.598.68-3.797a9.322 9.322 0 011.938-3.117c.84-.9 1.899-1.599 3.138-2.118 1.239-.52 2.658-.78 4.237-.78 1.578 0 2.977.26 4.216.78 1.219.52 2.258 1.219 3.118 2.098a8.767 8.767 0 011.938 3.058c.44 1.159.66 2.358.66 3.637 0 .32-.02.66-.04.979-.02.32-.06.6-.1.82h-13.729c.1 1.238.539 2.197 1.359 2.837.819.64 1.738.98 2.777.98.82 0 1.619-.2 2.398-.6.76-.4 1.279-.94 1.539-1.62l4.816 1.34c-.739 1.459-1.858 2.638-3.397 3.557-1.579.9-3.417 1.359-5.555 1.359zm3.916-11.351c-.119-1.18-.539-2.098-1.279-2.778-.739-.68-1.638-1.019-2.717-1.019-1.119 0-2.019.34-2.738 1.04-.72.699-1.139 1.618-1.259 2.777h7.993v-.02zm16.287 11.351c-1.279 0-2.438-.24-3.517-.72a8.23 8.23 0 01-2.778-2.018 9.55 9.55 0 01-1.818-3.057c-.44-1.16-.66-2.439-.66-3.817 0-1.34.2-2.598.6-3.777.4-1.18.959-2.199 1.698-3.058.74-.86 1.599-1.539 2.598-2.018 1-.5 2.099-.74 3.318-.74 1.299 0 2.478.3 3.517.92 1.059.62 1.858 1.438 2.418 2.478V1.579h5.655v19.404c0 .56.08.96.26 1.18.18.22.48.359.939.399v4.756c-.519.12-.959.2-1.338.22-.38.04-.74.06-1.06.06-.999 0-1.798-.2-2.398-.62-.619-.42-.959-.999-1.059-1.778l-.1-.96c-.659 1.16-1.559 2.019-2.678 2.579a8.183 8.183 0 01-3.597.819zm1.519-4.756c.779 0 1.519-.22 2.238-.68a4.41 4.41 0 001.639-1.878v-3.877c-.36-.94-.919-1.719-1.719-2.318-.799-.6-1.618-.9-2.458-.9-.619 0-1.179.14-1.678.4-.5.28-.96.62-1.319 1.08-.38.439-.66.959-.86 1.558a5.806 5.806 0 00-.299 1.878c0 .68.12 1.32.339 1.899.22.58.54 1.1.92 1.519.379.42.859.76 1.418.979.56.22 1.14.34 1.779.34zm22.802 4.756c-1.559 0-2.958-.26-4.197-.76-1.239-.5-2.298-1.198-3.157-2.058a8.83 8.83 0 01-1.959-3.017 9.906 9.906 0 01-.679-3.578c0-1.338.22-2.598.679-3.797a9.308 9.308 0 011.939-3.117c.839-.9 1.898-1.599 3.137-2.118 1.239-.52 2.658-.78 4.237-.78 1.578 0 2.977.26 4.216.78 1.219.52 2.259 1.219 3.118 2.098a8.753 8.753 0 011.938 3.058c.44 1.159.66 2.358.66 3.637 0 .32-.02.66-.04.979-.02.32-.06.6-.1.82h-13.729c.1 1.238.539 2.197 1.359 2.837.819.64 1.738.98 2.778.98a5.2 5.2 0 002.398-.6c.759-.4 1.279-.94 1.538-1.62l4.817 1.34c-.74 1.459-1.859 2.638-3.398 3.557-1.578.9-3.417 1.359-5.555 1.359zm3.917-11.351c-.12-1.18-.54-2.098-1.279-2.778-.74-.68-1.639-1.019-2.718-1.019-1.119 0-2.019.34-2.738 1.04-.719.699-1.139 1.618-1.259 2.777h7.994v-.02zm20.363-2.677c-1.359.02-2.598.239-3.717.679-1.119.42-1.918 1.059-2.398 1.898v11.111h-5.655V8.793h5.196v3.737c.639-1.239 1.458-2.218 2.458-2.918.999-.7 2.078-1.079 3.197-1.099h.56c.119 0 .239.02.359.04v5.056zm10.292 14.028c-1.579 0-2.998-.26-4.237-.78-1.239-.519-2.278-1.218-3.137-2.098a8.96 8.96 0 01-1.939-3.077 10.238 10.238 0 01-.659-3.657c0-1.28.22-2.478.659-3.657a9.038 9.038 0 011.939-3.078c.839-.88 1.898-1.579 3.137-2.118 1.239-.54 2.658-.8 4.237-.8 1.579 0 2.978.26 4.217.8a9.561 9.561 0 013.117 2.118 8.656 8.656 0 011.938 3.078 10.296 10.296 0 01.02 7.314 9.02 9.02 0 01-1.938 3.077c-.839.88-1.898 1.58-3.137 2.099-1.22.52-2.638.779-4.217.779zm-4.137-9.592c0 1.459.38 2.618 1.159 3.517.78.88 1.779 1.319 2.978 1.319.579 0 1.139-.12 1.619-.36.499-.24.919-.56 1.299-.98.359-.419.659-.938.859-1.538.22-.6.32-1.259.32-1.958 0-1.46-.38-2.618-1.159-3.517-.78-.9-1.759-1.32-2.938-1.32-.6 0-1.139.12-1.639.36-.499.24-.939.56-1.319.98-.359.42-.659.939-.859 1.538-.22.6-.32 1.26-.32 1.959z" fill="#161616"/><path d="M54.516 6.954a22.225 22.225 0 01-12.89 4.117c-2.957 0-5.895-.6-8.633-1.758l-1.159-.5-1.159.48a22.155 22.155 0 01-12.95 1.339 22.32 22.32 0 01-9.352-4.277L0 0l3.617 10.312c2.878 8.233 10.911 16.566 18.465 19.944 2.698 3.617 4.057 10.092 7.914 12.17l1.399.76 1.399-.76c3.797-2.038 5.335-8.453 7.973-12.01 7.474-3.238 15.348-11.351 18.345-19.385L62.85 1.1l-8.333 5.855zM38.91 19.844c-1.819.34-3.457.36-4.756.26-.14 2.258-.36 4.676-.7 7.214a95.743 95.743 0 01-1.799 9.532 91.336 91.336 0 01-1.798-9.532c-.34-2.538-.56-4.956-.7-7.214-1.298.1-2.917.1-4.756-.26-4.196-.8-7.094-2.938-8.553-4.197 2.099.36 4.477.66 7.095.78 3.377.16 6.394 0 8.972-.28 2.418.28 5.256.42 8.434.28a56.58 56.58 0 007.094-.78 18.042 18.042 0 01-8.533 4.197z" fill="#F6A433"/><path d="M75.08 42.906c-.04.02-.1.04-.18.08-.08.04-.18.06-.28.1-.1.04-.22.06-.36.1-.14.02-.28.04-.42.04-.16 0-.3-.02-.44-.06a.799.799 0 01-.359-.2c-.1-.08-.18-.2-.26-.34-.06-.14-.1-.28-.1-.46V38.27h-.759v-.56h.76v-1.838h.719v1.839h1.259v.56H73.4v3.716c.02.2.08.36.22.44.12.1.28.14.44.14.2 0 .38-.04.54-.1.16-.06.26-.12.3-.14l.18.58zm3.617-4.576c-.48.02-.9.14-1.26.399a2 2 0 00-.759 1.039v3.397h-.72V37.71h.68v1.319c.2-.42.48-.74.82-.98a1.9 1.9 0 011.099-.36c.06 0 .1 0 .14.02v.62zm2.258 4.935c-.26 0-.5-.04-.72-.14-.22-.1-.42-.2-.58-.36a1.678 1.678 0 01-.379-.539c-.1-.2-.14-.42-.14-.66 0-.24.06-.459.16-.659.12-.2.26-.38.48-.52.2-.14.44-.26.72-.34.279-.08.579-.119.919-.119.28 0 .56.02.859.08.28.04.54.12.76.2v-.5c0-.48-.14-.86-.42-1.139-.28-.28-.66-.42-1.14-.42-.28 0-.56.06-.859.16-.3.12-.6.28-.9.48l-.259-.48c.7-.48 1.399-.72 2.058-.72.68 0 1.22.2 1.62.58.399.38.579.92.579 1.6v2.457c0 .2.08.3.26.3v.62c-.12.02-.22.04-.28.04-.18 0-.32-.04-.42-.14-.1-.1-.16-.22-.16-.38l-.02-.42c-.26.32-.56.58-.96.76-.319.18-.739.26-1.178.26zm.18-.54c.38 0 .72-.06 1.019-.2a1.7 1.7 0 00.72-.559.61.61 0 00.14-.2c.04-.08.04-.14.04-.2v-.899c-.24-.1-.48-.16-.74-.2-.26-.04-.52-.08-.78-.08-.5 0-.919.1-1.239.32-.32.2-.48.48-.48.82 0 .16.04.32.1.48.06.14.16.28.28.379.12.1.26.2.42.26.16.06.34.08.52.08zm6.435.54c-.38 0-.72-.08-1.06-.24-.32-.16-.6-.36-.839-.62a2.567 2.567 0 01-.54-.898c-.12-.34-.2-.7-.2-1.06 0-.38.06-.739.18-1.099s.3-.64.52-.899c.22-.26.48-.46.78-.62.3-.16.639-.22.999-.22.46 0 .879.12 1.239.36.36.24.64.54.839.88v-3.337h.72v6.714c0 .2.08.3.26.3v.62c-.1.02-.18.04-.26.04-.16 0-.32-.06-.44-.16a.503.503 0 01-.18-.4v-.52c-.22.36-.52.64-.88.84-.36.22-.739.32-1.138.32zm.16-.62a2.096 2.096 0 001.12-.38 1.77 1.77 0 00.438-.419c.12-.16.2-.34.22-.52v-1.678a2.7 2.7 0 00-.3-.52c-.14-.16-.28-.3-.46-.44a3.098 3.098 0 00-.559-.299c-.2-.06-.38-.1-.58-.1-.3 0-.56.06-.799.18-.24.12-.44.3-.62.5s-.3.44-.4.7a2.294 2.294 0 00-.139.819c0 .3.06.579.16.839s.24.5.44.7c.2.2.4.359.64.479.279.08.539.14.838.14zm6.494.62c-.4 0-.76-.08-1.099-.22-.34-.16-.62-.36-.86-.619a3.02 3.02 0 01-.579-.9c-.14-.339-.2-.699-.2-1.098 0-.38.06-.74.2-1.08.14-.34.32-.639.56-.899.24-.26.54-.46.859-.6.34-.16.7-.22 1.1-.22.399 0 .758.08 1.098.22.34.16.62.36.86.62s.42.56.56.9c.139.34.199.699.199 1.059v.16c0 .06 0 .1-.02.12h-4.696c.02.3.08.559.2.819.12.24.26.46.44.64s.399.319.619.419c.22.1.48.16.76.16.179 0 .359-.02.519-.08.18-.04.34-.12.48-.2.14-.08.28-.18.399-.3.12-.12.22-.26.28-.4l.62.16c-.08.2-.2.38-.36.56-.16.16-.34.3-.54.42s-.42.22-.68.28c-.2.06-.46.08-.719.08zm2.019-3.117c-.02-.3-.08-.56-.2-.8-.12-.24-.26-.44-.44-.619-.18-.18-.38-.32-.62-.4-.24-.1-.48-.14-.759-.14-.26 0-.52.04-.76.14s-.439.24-.619.4c-.18.16-.32.38-.44.62-.1.24-.18.52-.2.799h4.038z" fill="#161616"/><path d="M107.314 37.71h.699l-2.358 5.455h-.58l-1.179-2.777-1.159 2.777h-.579L99.78 37.71h.699l1.998 4.716 1.04-2.498-.94-2.218h.6l.719 1.778.72-1.778h.619l-.939 2.218 1.039 2.498 1.979-4.716zm6.255 5.455h-.72v-3.057c0-.62-.1-1.08-.32-1.4-.219-.299-.519-.459-.939-.459-.2 0-.399.04-.599.12-.2.08-.38.2-.56.34-.18.14-.32.3-.46.5-.119.18-.219.4-.279.619v3.337h-.72v-7.654h.72v3.418c.22-.42.519-.74.899-.98s.799-.36 1.259-.36c.32 0 .58.06.799.18.22.12.4.28.54.48.14.2.24.46.3.74.06.28.1.6.1.959v3.217h-.02zm3.896.1a2.84 2.84 0 01-1.099-.22 2.715 2.715 0 01-.859-.619c-.24-.26-.44-.56-.579-.9-.14-.339-.2-.699-.2-1.098 0-.38.06-.74.2-1.08.139-.34.319-.639.559-.899.24-.26.54-.46.859-.6.34-.16.7-.22 1.099-.22.4 0 .76.08 1.1.22.339.16.619.36.859.62s.42.56.559.9c.14.34.2.699.2 1.059v.16c0 .06 0 .1-.02.12h-4.696c.02.3.08.559.2.819.12.24.26.46.44.64.179.18.399.319.619.419.22.1.48.16.759.16.18 0 .36-.02.52-.08.18-.04.34-.12.48-.2.14-.08.279-.18.399-.3s.22-.26.28-.4l.62.16c-.08.2-.2.38-.36.56-.16.16-.34.3-.54.42s-.419.22-.679.28c-.2.06-.46.08-.72.08zm2.019-3.117c-.02-.3-.08-.56-.2-.8-.12-.24-.26-.44-.44-.619a1.569 1.569 0 00-.619-.4c-.24-.1-.48-.14-.76-.14-.259 0-.519.04-.759.14s-.44.24-.619.4c-.18.16-.32.38-.44.62-.1.24-.18.52-.2.799h4.037zM124 38.33c-.479.02-.899.14-1.259.399-.359.26-.619.6-.759 1.039v3.397h-.72V37.71h.68v1.319c.2-.42.48-.74.819-.98a1.9 1.9 0 011.099-.36c.06 0 .1 0 .14.02v.62zm3.038 4.935c-.4 0-.76-.08-1.099-.22-.34-.16-.62-.36-.86-.619a3.037 3.037 0 01-.579-.9c-.14-.339-.2-.699-.2-1.098 0-.38.06-.74.2-1.08.14-.34.32-.639.559-.899.24-.26.54-.46.86-.6.339-.16.699-.22 1.099-.22s.759.08 1.099.22c.34.16.619.36.859.62s.42.56.56.9c.14.34.2.699.2 1.059v.16c0 .06 0 .1-.02.12h-4.697c.02.3.08.559.2.819.12.24.26.46.44.64s.4.319.619.419c.22.1.48.16.76.16.18 0 .36-.02.519-.08.18-.04.34-.12.48-.2.14-.08.28-.18.4-.3s.22-.26.279-.4l.62.16c-.08.2-.2.38-.36.56-.16.16-.339.3-.539.42s-.42.22-.68.28c-.2.06-.439.08-.719.08zm2.018-3.117c-.02-.3-.08-.56-.2-.8-.12-.24-.259-.44-.439-.619a1.58 1.58 0 00-.62-.4 1.9 1.9 0 00-.759-.14c-.26 0-.52.04-.76.14-.239.1-.439.24-.619.4-.18.16-.32.38-.44.62-.1.24-.18.52-.2.799h4.037zm3.278 3.017l-2.219-5.455h.74l1.878 4.796 1.899-4.796h.699l-2.238 5.455h-.759zm6.155.1c-.4 0-.76-.08-1.1-.22a2.715 2.715 0 01-.859-.619c-.24-.26-.44-.56-.579-.9-.14-.339-.2-.699-.2-1.098 0-.38.06-.74.2-1.08.139-.34.319-.639.559-.899.24-.26.54-.46.859-.6.34-.16.7-.22 1.1-.22.399 0 .759.08 1.099.22.339.16.619.36.859.62s.42.56.56.9c.139.34.199.699.199 1.059v.16c0 .06 0 .1-.02.12h-4.676c.02.3.08.559.2.819.12.24.26.46.44.64.179.18.399.319.619.419.22.1.48.16.76.16.179 0 .359-.02.519-.08.18-.04.34-.12.48-.2.14-.08.279-.18.399-.3s.22-.26.28-.4l.62.16c-.08.2-.2.38-.36.56-.16.16-.34.3-.54.42-.199.12-.419.22-.679.28-.22.06-.48.08-.739.08zm2.018-3.117c-.02-.3-.08-.56-.2-.8-.12-.24-.26-.44-.44-.619a1.569 1.569 0 00-.619-.4c-.24-.1-.48-.14-.759-.14-.26 0-.52.04-.76.14s-.44.24-.619.4c-.18.16-.32.38-.44.62-.1.24-.18.52-.2.799h4.037zm4.516-1.818c-.479.02-.899.14-1.259.399-.359.26-.619.6-.759 1.039v3.397h-.719V37.71h.679v1.319c.2-.42.48-.74.819-.98a1.9 1.9 0 011.099-.36c.06 0 .1 0 .14.02v.62z" fill="#F7A432"/><path d="M145.603 44.025l.18-.88h-.24v-.999h.699v1l-.259.879h-.38zm11.551-6.315h.699l-2.358 5.455h-.58l-1.179-2.777-1.159 2.777h-.579l-2.378-5.455h.699l1.998 4.716 1.04-2.498-.94-2.218h.6l.719 1.778.72-1.778h.619l-.939 2.218 1.039 2.498 1.979-4.716zm6.255 5.455h-.72v-3.057c0-.62-.1-1.08-.32-1.4-.219-.299-.519-.459-.939-.459-.2 0-.4.04-.599.12-.2.08-.38.2-.56.34-.18.14-.32.3-.46.5-.119.18-.219.4-.279.619v3.337h-.72v-7.654h.72v3.418c.219-.42.519-.74.899-.98s.799-.36 1.259-.36c.32 0 .579.06.799.18.22.12.4.28.54.48.14.2.24.46.3.74.06.28.1.6.1.959v3.217h-.02zm3.876.1a2.84 2.84 0 01-1.099-.22 2.715 2.715 0 01-.859-.619 3.02 3.02 0 01-.58-.9 2.84 2.84 0 01-.199-1.098c0-.38.06-.74.199-1.08.14-.34.32-.639.56-.899.24-.26.54-.46.859-.6.34-.16.7-.22 1.099-.22.4 0 .76.08 1.1.22.339.16.619.36.859.62s.42.56.559.9c.14.34.2.699.2 1.059v.16c0 .06 0 .1-.02.12h-4.696c.02.3.08.559.2.819.12.24.26.46.44.64.179.18.399.319.619.419.22.1.48.16.759.16.18 0 .36-.02.52-.08.18-.04.34-.12.48-.2.139-.08.279-.18.399-.3s.22-.26.28-.4l.62.16c-.08.2-.2.38-.36.56-.16.16-.34.3-.54.42s-.419.22-.679.28c-.2.06-.44.08-.72.08zm2.019-3.117c-.02-.3-.08-.56-.2-.8-.12-.24-.26-.44-.44-.619-.18-.18-.379-.32-.619-.4-.24-.1-.48-.14-.76-.14-.259 0-.519.04-.759.14s-.44.24-.619.4c-.18.16-.32.38-.44.62-.1.24-.18.52-.2.799h4.037zm6.395 3.017h-.72v-3.057c0-.64-.1-1.12-.279-1.419-.2-.3-.48-.44-.88-.44-.22 0-.419.04-.639.12a2.26 2.26 0 00-1.059.82c-.14.2-.24.4-.3.62v3.337h-.72V37.71h.66v1.239c.22-.4.539-.72.959-.96.42-.24.879-.36 1.359-.36.3 0 .56.06.759.16.22.12.38.26.5.48.12.2.22.46.28.74.06.3.08.62.08.979v3.177zm3.897.1c-.4 0-.76-.08-1.1-.22a2.715 2.715 0 01-.859-.619 3.02 3.02 0 01-.579-.9c-.14-.339-.2-.699-.2-1.098 0-.38.06-.74.2-1.08.14-.34.319-.639.559-.899.24-.26.54-.46.859-.6.34-.16.7-.22 1.1-.22.399 0 .759.08 1.099.22.339.16.619.36.859.62s.42.56.56.9c.139.34.199.699.199 1.059v.16c0 .06 0 .1-.02.12h-4.696c.02.3.08.559.2.819.12.24.26.46.44.64s.399.319.619.419c.22.1.48.16.76.16.179 0 .359-.02.519-.08.18-.04.34-.12.48-.2.14-.08.28-.18.399-.3.12-.12.22-.26.28-.4l.62.16c-.08.2-.2.38-.36.56-.16.16-.34.3-.54.42-.199.12-.419.22-.679.28-.2.06-.46.08-.719.08zm2.018-3.117c-.02-.3-.08-.56-.2-.8-.12-.24-.26-.44-.44-.619a1.569 1.569 0 00-.619-.4c-.24-.1-.48-.14-.759-.14-.26 0-.52.04-.76.14s-.439.24-.619.4c-.18.16-.32.38-.44.62-.1.24-.18.52-.2.799h4.037zm3.277 3.017l-2.238-5.455h.739l1.879 4.796 1.898-4.796h.7l-2.238 5.455h-.74zm6.135.1a2.84 2.84 0 01-1.099-.22 2.715 2.715 0 01-.859-.619 3.02 3.02 0 01-.58-.9 2.84 2.84 0 01-.199-1.098c0-.38.06-.74.199-1.08.14-.34.32-.639.56-.899.24-.26.54-.46.859-.6.34-.16.7-.22 1.099-.22.4 0 .76.08 1.1.22.339.16.619.36.859.62s.419.56.559.9c.14.34.2.699.2 1.059v.16c0 .06 0 .1-.02.12h-4.696c.02.3.08.559.2.819.12.24.26.46.439.64.18.18.4.319.62.419.22.1.48.16.759.16.18 0 .36-.02.52-.08.18-.04.34-.12.48-.2.139-.08.279-.18.399-.3s.22-.26.28-.4l.62.16c-.08.2-.2.38-.36.56-.16.16-.34.3-.54.42s-.419.22-.679.28c-.2.06-.46.08-.72.08zm2.019-3.117c-.02-.3-.08-.56-.2-.8-.12-.24-.26-.44-.44-.619-.18-.18-.379-.32-.619-.4-.24-.1-.48-.14-.76-.14-.259 0-.519.04-.759.14s-.44.24-.62.4c-.179.16-.319.38-.439.62-.1.24-.18.52-.2.799h4.037zm4.516-1.818c-.48.02-.899.14-1.259.399-.36.26-.619.6-.759 1.039v3.397h-.7V37.71h.68v1.319c.2-.42.479-.74.819-.98.34-.24.719-.36 1.099-.36.06 0 .1 0 .14.02v.62h-.02z" fill="#161616"/></svg>