<svg width="63" height="44" fill="none" xmlns="http://www.w3.org/2000/svg"><path d="M54.516 6.954a22.225 22.225 0 01-12.89 4.117c-2.957 0-5.895-.6-8.633-1.758l-1.159-.5-1.159.48a22.155 22.155 0 01-12.95 1.339 22.32 22.32 0 01-9.352-4.277L0 0l3.617 10.312c2.878 8.233 10.911 16.566 18.465 19.944 2.698 3.617 4.057 10.092 7.914 12.17l1.399.76 1.399-.76c3.797-2.038 5.335-8.453 7.973-12.01 7.474-3.238 15.348-11.351 18.345-19.385L62.85 1.1l-8.333 5.855zM38.91 19.844c-1.819.34-3.457.36-4.756.26-.14 2.258-.36 4.676-.7 7.214a95.743 95.743 0 01-1.799 9.532 91.336 91.336 0 01-1.798-9.532c-.34-2.538-.56-4.956-.7-7.214-1.298.1-2.917.1-4.756-.26-4.196-.8-7.094-2.938-8.553-4.197 2.099.36 4.477.66 7.095.78 3.377.16 6.394 0 8.972-.28 2.418.28 5.256.42 8.434.28a56.58 56.58 0 007.094-.78 18.042 18.042 0 01-8.533 4.197z" fill="#F6A433"/></svg>